<svg width="12" height="12" viewBox="0 0 12 12" fill="none" xmlns="http://www.w3.org/2000/svg">
<g clip-path="url(#clip0_3_223)">
<path d="M4.38462 10.6154C4.28205 10.6151 4.18064 10.5931 4.08669 10.5509C3.99274 10.5087 3.90827 10.4472 3.83852 10.3702L0.20278 6.40771C0.0668714 6.25933 -0.00593442 6.0617 0.000378846 5.85832C0.00350486 5.75762 0.0259611 5.65853 0.0664653 5.56671C0.10697 5.4749 0.164728 5.39216 0.236444 5.32322C0.30816 5.25427 0.392429 5.20047 0.484439 5.16489C0.576448 5.12931 0.674397 5.11265 0.772693 5.11585C0.97121 5.12232 1.15909 5.20932 1.295 5.3577L4.37714 8.72233L10.6686 1.67118C10.7325 1.58972 10.8119 1.5225 10.902 1.47364C10.9921 1.42478 11.0911 1.39531 11.1927 1.38705C11.2944 1.37878 11.3966 1.39189 11.4931 1.42558C11.5896 1.45926 11.6784 1.5128 11.754 1.58292C11.8296 1.65304 11.8904 1.73824 11.9327 1.83331C11.975 1.92838 11.9978 2.03129 11.9999 2.13574C12.0019 2.24019 11.9831 2.34396 11.9445 2.44068C11.906 2.5374 11.8486 2.62504 11.7758 2.69819L4.93821 10.3625C4.86912 10.4409 4.78494 10.5039 4.69096 10.5474C4.59698 10.591 4.49523 10.6141 4.39211 10.6154H4.38462Z" fill="white"/>
</g>
<defs>
<clipPath id="clip0_3_223">
<rect width="12" height="12" fill="white"/>
</clipPath>
</defs>
</svg>
